<svg xmlns="http://www.w3.org/2000/svg" width="9" height="10" viewBox="0 0 9 10">
    <path fill="#FFF" fill-rule="evenodd" d="M5.25 2C3.458 2 2 3.458 2 5.25 2 6.766 3.234 8 4.75 8 5.99 8 7 6.99 7 5.75 7 4.785 6.215 4 5.25 4H5v1h.25c.413 0 .75.337.75.75C6 6.439 5.44 7 4.75 7 3.785 7 3 6.215 3 5.25 3 4.01 4.01 3 5.25 3 6.766 3 8 4.234 8 5.75 8 7.542 6.542 9 4.75 9 2.682 9 1 7.318 1 5.25 1 2.906 2.906 1 5.25 1V0C2.355 0 0 2.355 0 5.25 0 7.869 2.131 10 4.75 10 7.093 10 9 8.094 9 5.75 9 3.682 7.318 2 5.25 2"/>
</svg>
