<svg width="24" height="24" viewBox="0 0 24 24" fill="none" xmlns="http://www.w3.org/2000/svg">
  <path fill-rule="evenodd" clip-rule="evenodd" d="M17.5 14.9999C20.1075 14.9999 22.4408 13.8258 24 11.9775L24 12C24 18.6274 18.6274 24 12 24C5.37258 24 0 18.6274 0 12C0 5.37258 5.37258 0 12 0L12.0224 2.24103e-05C10.1741 1.55924 9 3.89248 9 6.49993C9 11.1944 12.8056 14.9999 17.5 14.9999ZM18 4.58579L20.1213 3.87868L19.4142 6L20.1213 8.12132L18 7.41421L15.8787 8.12132L16.5858 6L15.8787 3.87868L18 4.58579Z" fill="currentColor"/>
</svg>
