<svg width="13" height="12" xmlns="http://www.w3.org/2000/svg">
    <path d="M11.915 12c.832 0 1.355-.937.939-1.687L7.438.563a1.064 1.064 0 00-1.876 0l-5.416 9.75C-.27 11.06.251 12 1.085 12h10.83zM7.048 7.875H5.952a.275.275 0 01-.27-.266l-.168-3.187a.277.277 0 01.27-.297h1.431c.156 0 .28.135.27.297l-.167 3.187a.275.275 0 01-.27.266zM6.5 10.453c-.573 0-1.038-.483-1.038-1.078 0-.595.465-1.078 1.038-1.078s1.038.483 1.038 1.078c0 .595-.465 1.078-1.038 1.078z" fill="#FFF" fill-rule="nonzero"/>
</svg>
