<svg version="1" xmlns="http://www.w3.org/2000/svg" width="933.333" height="933.333" viewBox="0 0 700.000000 700.000000"><path d="M345.8 27.5c-.2.1-3.9.5-8.3.9-13.5 1-29.8 5.7-42.8 12.2-23.4 11.7-45.5 34.5-56.2 57.9-2 4.4-4 8.7-4.5 9.6-1.4 2.8-5 17.1-6.3 26-1.4 8.5-1.5 29.6-.4 35.4.4 1.6.9 4.5 1.2 6.3 3.5 21.4 16.3 46.1 32.8 63 5 5.2 5.9 6.6 5 8-7.6 12.1-47.4 75-49.8 78.7-1.8 2.7-10.3 16.2-19 30-16 25.4-17.2 27.3-31.5 49.5-4.4 6.9-8.9 14.2-10 16.3-1.2 2.1-2.7 4-3.5 4.3-.7.3-5.4-.1-10.5-.9-5.2-.8-14.2-1.3-21.3-1.2-31.6.7-60.7 13.1-83.7 35.9-18.4 18.2-31.3 43.3-35.4 69C-.2 539.9.2 562 2.4 572c1 4.1 1.9 8.3 2.1 9.3.2 1 1.8 5.6 3.5 10.2 8.2 22.3 24.2 43.3 44 57.8 12.5 9.2 35.7 19.1 49.6 21.1 33.6 5 61.9-.4 88.1-17 48.4-30.7 69.4-90.4 51.3-145.6-8.8-26.8-29.6-52.7-53.6-66.9l-4.1-2.4 27.9-44c15.3-24.2 39.6-62.7 54-85.5 14.4-22.8 26.9-42.4 27.9-43.4 1.8-2 1.9-2 6.1.1 8.4 4.1 23.6 8.5 33.8 9.9 7.3 1 24.9 1 33 .1 10.3-1.2 28.5-6.4 35.8-10.3 3.8-2 4.5-1.8 6.7 1.8 1 1.8 15.8 25.3 32.9 52.3 17.1 26.9 41 64.7 53.2 84l22.1 35-4.1 2.4c-13.6 8-29.6 23.4-38.9 37.4-27.3 40.8-28.2 94.2-2.4 135.7 4.5 7.2 14.9 20.1 19.3 24 14 12.2 21.4 17.2 34 23.1 8 3.7 23 8.5 29.5 9.4 33.5 4.7 59.7-.2 86.2-16.1 18.5-11.2 36.7-30.9 46.3-50.5 9.6-19.5 12.7-33.2 12.8-56.9 0-28.2-7.9-51.8-24.9-74.6-17.8-23.7-48.8-43-75.6-46.9-2.4-.4-6-1-7.9-1.4-5-1.1-28.5-.5-34.9.8-9.6 2-6 5.9-31.1-33.9-16.5-26.2-18.7-29.7-22.5-35.5-1.8-2.8-8.8-13.8-15.5-24.5-6.8-10.7-13.7-21.8-15.5-24.5-1.7-2.8-5.3-8.4-8-12.5-2.6-4.1-5.5-8.6-6.4-10-.8-1.4-2-3.3-2.6-4.3-.5-.9-5.3-8.6-10.6-17-5.3-8.3-10-15.8-10.4-16.6-.5-.9 1.2-3.3 5.3-7.5 18.7-19.1 30.9-44.7 34-71.6.8-7.2.8-22.9-.1-30.5-2.2-19.5-11-41.8-22.9-58-6.1-8.4-20.3-22.4-28.2-28-16.8-11.9-38.9-20.4-57.1-22-8.7-.8-18.4-1.3-18.7-1z"/></svg>