<svg xmlns="http://www.w3.org/2000/svg" width="16" height="16" viewBox="0 0 16 16">
    <path fill="#14182F" d="M12.45 16c.982 0 1.819-.346 2.511-1.038.693-.692 1.039-1.53 1.039-2.515 0-.985-.346-1.826-1.039-2.523-.692-.696-1.53-1.044-2.51-1.044h-1.789V7.107h1.789c.98 0 1.818-.346 2.51-1.038C15.654 5.377 16 4.539 16 3.553c0-.985-.346-1.823-1.039-2.515C14.27.346 13.431 0 12.451 0c-.982 0-1.819.346-2.511 1.038C9.247 1.73 8.9 2.566 8.9 3.546v1.787H7.113V3.546c0-.98-.349-1.816-1.046-2.508C5.37.346 4.531 0 3.55 0c-.98 0-1.818.346-2.51 1.038C.346 1.73 0 2.568 0 3.553c0 .985.346 1.824 1.039 2.516.692.692 1.53 1.038 2.51 1.038h1.789V8.88H3.549c-.98 0-1.818.348-2.51 1.044C.346 10.621 0 11.462 0 12.447c0 .985.346 1.823 1.039 2.515.692.692 1.53 1.038 2.51 1.038.982 0 1.821-.346 2.518-1.038.697-.692 1.046-1.528 1.046-2.508v-1.787H8.9v1.787c0 .98.346 1.816 1.039 2.508.692.692 1.53 1.038 2.51 1.038zM5.339 5.333H3.549c-.486 0-.903-.174-1.251-.522-.349-.348-.523-.77-.523-1.265 0-.485.174-.902.523-1.25.348-.349.765-.523 1.251-.523.496 0 .918.174 1.266.523.349.348.523.765.523 1.25v1.787zm7.113 0h-1.789V3.546c0-.485.174-.902.523-1.25.348-.349.77-.523 1.266-.523.486 0 .905.174 1.258.523.353.348.53.767.53 1.257 0 .49-.174.91-.523 1.258-.348.348-.77.522-1.265.522zM8.9 8.88H7.113V7.107H8.9V8.88zm3.55 5.333c-.487 0-.906-.172-1.26-.515-.352-.344-.529-.759-.529-1.244v-1.787h1.789c.486 0 .905.174 1.258.522.353.348.53.765.53 1.25 0 .496-.174.915-.523 1.259-.348.343-.77.515-1.265.515zm-8.902 0c-.486 0-.903-.172-1.251-.515-.349-.344-.523-.759-.523-1.244 0-.495.174-.917.523-1.265.348-.348.765-.522 1.251-.522h1.789v1.787c0 .485-.174.9-.523 1.244-.348.343-.77.515-1.266.515z"/>
</svg>
